<?xml version="1.0" encoding="utf-8"?>
<!-- Uploaded to: SVG Repo, www.svgrepo.com, Generator: SVG Repo Mixer Tools -->
<svg width="800px" height="800px" viewBox="0 0 69.543 69.543" xmlns="http://www.w3.org/2000/svg">
  <g id="plane_flight_flying" data-name="plane flight flying" transform="translate(-870.243 -1004.284)">
    <path id="Path_280" data-name="Path 280" d="M898.365,1016.964l.013-.008-1.188-.363s0,.008-.007.013Z" fill="none"/>
    <path id="Path_281" data-name="Path 281" d="M897.573,1015.472a1.8,1.8,0,0,0-.546-1.313l-1.5-1.508a1.9,1.9,0,0,0-1.317-.543,1.816,1.816,0,0,0-1.31.553l-2.026,2.022,6.313,1.91A1.83,1.83,0,0,0,897.573,1015.472Z" fill="#27b7ff"/>
    <path id="Path_282" data-name="Path 282" d="M904.731,1018.839l-.02.019.02-.019a1.86,1.86,0,0,0,.538-1.3,1.83,1.83,0,0,0-.542-1.314l-1.5-1.5a1.857,1.857,0,0,0-1.314-.551,1.83,1.83,0,0,0-1.31.545l-2.226,2.234,3.49.992Z" fill="#27b7ff"/>
    <path id="Path_283" data-name="Path 283" d="M922.728,1031.079c.856-.814,1.666-1.594,2.448-2.334,4.487-4.258,7.731-7.34,10.044-10.42,2.85-3.82,4.561-7.783,4.566-10.627a3.93,3.93,0,0,0-.538-2.164,2.113,2.113,0,0,0-.319-.4,1.934,1.934,0,0,0-.369-.291,3.839,3.839,0,0,0-2.2-.555c-2.83.008-6.79,1.711-10.618,4.574-3.087,2.309-6.179,5.567-10.453,10.079-.731.761-1.492,1.562-2.3,2.406l-6.609-1.983-.011.008-7.993-2.412-.013.008-1.182-.358c0-.005,0-.009.007-.013l-6.313-1.91-.03.031-8.42-2.529a2.1,2.1,0,0,0-.6-.086,2.252,2.252,0,0,0-1.559.632l-2.969,2.963a1.778,1.778,0,0,0-.515,1.221,1.678,1.678,0,0,0,.9,1.518l17.71,9.9a3.458,3.458,0,0,1,.437.33l5.047,5.049c-4.717,4.98-8.931,9.8-12.2,13.992-.31.391-.6.766-.894,1.141l-13.7-1.242a1.837,1.837,0,0,0-.239-.016,2.564,2.564,0,0,0-1.7.7l-1.384,1.381a1.689,1.689,0,0,0,.47,2.766l9.641,4.584a1.971,1.971,0,0,1,.366.261l.8.795a5.715,5.715,0,0,0-.381,1.862,2.394,2.394,0,0,0,.67,1.765l.036.033.005.008a2.436,2.436,0,0,0,1.774.662,5.912,5.912,0,0,0,1.84-.382l.808.808a2.452,2.452,0,0,1,.254.363l4.571,9.62a1.688,1.688,0,0,0,1.536,1.011h.005a1.754,1.754,0,0,0,1.224-.511l1.413-1.422a2.509,2.509,0,0,0,.673-1.692,1.44,1.44,0,0,0-.005-.172l-1.249-13.75c.385-.281.761-.578,1.152-.879,4.2-3.285,9.019-7.5,13.984-12.21l5.054,5.058a2.469,2.469,0,0,1,.33.432l9.879,17.679a1.712,1.712,0,0,0,2.749.407l2.988-2.979a2.244,2.244,0,0,0,.528-2.135l-2.361-7.878-.06-.057-4.255-14.363-.005.007Z" fill="#f4f4f4"/>
    <path id="Path_284" data-name="Path 284" d="M929.892,1042.157a1.855,1.855,0,0,0-.539-1.312l-1.5-1.5a1.861,1.861,0,0,0-2.64,0l-.005.006,1.884,6.357,2.258-2.246A1.864,1.864,0,0,0,929.892,1042.157Z" fill="#27b7ff"/>
    <path id="Path_285" data-name="Path 285" d="M931.958,1049.851a1.838,1.838,0,0,0-.538-1.3l-1.511-1.5a1.8,1.8,0,0,0-1.3-.543,1.825,1.825,0,0,0-1.139.387l-.038-.045,1.152,3.742.779,2.643h0l2.056-2.059A1.872,1.872,0,0,0,931.958,1049.851Z" fill="#27b7ff"/>
  </g>
</svg>